<svg xmlns="http://www.w3.org/2000/svg" version="1.1" xmlns:xlink="http://www.w3.org/1999/xlink" xmlns:svgjs="http://svgjs.dev/svgjs" width="1000" height="1000" viewBox="0 0 1000 1000"><rect width="1000" height="1000" fill="#bb84e8"></rect><g transform="matrix(0.7,0,0,0.7,149.57577142594658,432.98331204366394)"><svg viewBox="0 0 396 76" data-background-color="#bb84e8" preserveAspectRatio="xMidYMid meet" height="191" width="1000" xmlns="http://www.w3.org/2000/svg" xmlns:xlink="http://www.w3.org/1999/xlink"><g id="tight-bounds" transform="matrix(1,0,0,1,0.23999216475021967,0.09475203404889498)"><svg viewBox="0 0 395.52 75.81049639765241" height="75.81049639765241" width="395.52"><g><svg viewBox="0 0 643.5596766883541 123.35299997789448" height="75.81049639765241" width="395.52"><g transform="matrix(1,0,0,1,248.03967668835406,17.04806294918803)"><svg viewBox="0 0 395.52 89.25687407951843" height="89.25687407951843" width="395.52"><g><svg viewBox="0 0 395.52 89.25687407951843" height="89.25687407951843" width="395.52" id="textblock"><g><svg viewBox="0 0 395.52 54.147201861547416" height="54.147201861547416" width="395.52"><g transform="matrix(1,0,0,1,0,0)"><svg width="395.52" viewBox="3.0999999046325684 -34.79999923706055 247.63998413085938 35.29999923706055" height="54.147201861547416" data-palette-color="#454545"><g class="undefined-text-0" data-fill-palette-color="primary" id="text-0"><path d="M28.7-12.55Q28.7-5.5 25.15-2.5 21.6 0.5 16 0.5L16 0.5Q12 0.5 9.18-0.95 6.35-2.4 4.73-6.15 3.1-9.9 3.1-16.5L3.1-16.5 3.1-17.8Q3.1-24.4 4.73-28.15 6.35-31.9 9.18-33.35 12-34.8 16-34.8L16-34.8Q21.65-34.8 25.18-31.85 28.7-28.9 28.7-21.7L28.7-21.7 26.05-21.7Q26.05-27.65 23.3-30.03 20.55-32.4 16-32.4L16-32.4Q11.1-32.4 8.45-29.38 5.8-26.35 5.8-18.4L5.8-18.4 5.8-15.9Q5.8-7.95 8.45-4.93 11.1-1.9 16-1.9L16-1.9Q26.05-1.9 26.05-12.55L26.05-12.55 28.7-12.55ZM49.5 0.5Q43.25 0.5 39.72-3.23 36.2-6.95 36.2-16.5L36.2-16.5 36.2-17.8Q36.2-27.35 39.72-31.08 43.25-34.8 49.5-34.8L49.5-34.8Q55.75-34.8 59.27-31.08 62.8-27.35 62.8-17.8L62.8-17.8 62.8-16.5Q62.8-6.95 59.27-3.23 55.75 0.5 49.5 0.5L49.5 0.5ZM49.5-1.9Q54.45-1.9 57.27-4.95 60.1-8 60.1-15.9L60.1-15.9 60.1-18.4Q60.1-26.3 57.27-29.35 54.45-32.4 49.5-32.4L49.5-32.4Q44.55-32.4 41.72-29.35 38.9-26.3 38.9-18.4L38.9-18.4 38.9-15.9Q38.9-8 41.72-4.95 44.55-1.9 49.5-1.9L49.5-1.9ZM95.8-34.3L95.8-11Q95.8-7.55 94.32-4.95 92.85-2.35 90.12-0.93 87.4 0.5 83.85 0.5L83.85 0.5Q80.3 0.5 77.6-0.93 74.9-2.35 73.42-4.95 71.95-7.55 71.95-11L71.95-11 71.95-34.3 74.65-34.3 74.65-11.1Q74.65-6.85 77.07-4.38 79.5-1.9 83.85-1.9L83.85-1.9Q88.2-1.9 90.65-4.42 93.1-6.95 93.1-11.1L93.1-11.1 93.1-34.3 95.8-34.3ZM106.24 0L106.24-34.3 120.29-34.3Q122.84-34.3 124.99-33.05 127.14-31.8 128.39-29.65 129.64-27.5 129.64-24.95L129.64-24.95Q129.64-22.4 128.39-20.25 127.14-18.1 124.99-16.85 122.84-15.6 120.29-15.6L120.29-15.6 108.94-15.6 108.94 0 106.24 0ZM119.94-17.95Q121.84-17.95 123.49-18.88 125.14-19.8 126.09-21.43 127.04-23.05 127.04-24.95L127.04-24.95Q127.04-26.85 126.09-28.45 125.14-30.05 123.49-30.98 121.84-31.9 119.94-31.9L119.94-31.9 108.94-31.9 108.94-17.95 119.94-17.95ZM149.19 0.5Q142.94 0.5 139.42-3.23 135.89-6.95 135.89-16.5L135.89-16.5 135.89-17.8Q135.89-27.35 139.42-31.08 142.94-34.8 149.19-34.8L149.19-34.8Q155.44-34.8 158.97-31.08 162.49-27.35 162.49-17.8L162.49-17.8 162.49-16.5Q162.49-6.95 158.97-3.23 155.44 0.5 149.19 0.5L149.19 0.5ZM149.19-1.9Q154.14-1.9 156.97-4.95 159.79-8 159.79-15.9L159.79-15.9 159.79-18.4Q159.79-26.3 156.97-29.35 154.14-32.4 149.19-32.4L149.19-32.4Q144.24-32.4 141.42-29.35 138.59-26.3 138.59-18.4L138.59-18.4 138.59-15.9Q138.59-8 141.42-4.95 144.24-1.9 149.19-1.9L149.19-1.9ZM195.89 0L193.49 0 174.49-29.15 174.34-29.15 174.34 0 171.94 0 171.94-34.3 174.24-34.3 193.34-5.15 193.49-5.15 193.49-34.3 195.89-34.3 195.89 0Z" fill="#454545" data-fill-palette-color="primary"></path><path d="M215.69-24.6Q216.89-27.05 217.54-28.65L217.54-28.65 218.49-28.65 218.49-11.75 222.59-11.75 222.59-9.35 218.49-9.35 218.49 0 215.69 0 215.69-9.35 198.39-9.35 198.39-11.75Q199.44-13 201.74-17.07 204.04-21.15 206.42-26.05 208.79-30.95 210.19-34.8L210.19-34.8 212.99-34.8Q211.64-30.6 209.44-25.85 207.24-21.1 204.99-17.25 202.74-13.4 201.24-11.75L201.24-11.75 215.69-11.75 215.69-24.6Z" fill="#454545" data-fill-palette-color="primary"></path><path d="M250.74-34.3L250.74-11Q250.74-7.55 249.27-4.95 247.79-2.35 245.07-0.93 242.34 0.5 238.79 0.5L238.79 0.5Q235.24 0.5 232.54-0.93 229.84-2.35 228.37-4.95 226.89-7.55 226.89-11L226.89-11 226.89-34.3 229.59-34.3 229.59-11.1Q229.59-6.85 232.02-4.38 234.44-1.9 238.79-1.9L238.79-1.9Q243.14-1.9 245.59-4.42 248.04-6.95 248.04-11.1L248.04-11.1 248.04-34.3 250.74-34.3Z" fill="#454545" data-fill-palette-color="primary"></path></g></svg></g></svg></g><g transform="matrix(1,0,0,1,0,66.93005668821408)"><svg viewBox="0 0 300.5952 22.326817391304342" height="22.326817391304342" width="300.5952"><g transform="matrix(1,0,0,1,0,0)"><svg width="300.5952" viewBox="4.449999809265137 -36.5 634.739990234375 47.150001525878906" height="22.326817391304342" data-palette-color="#454545"><path d="M7.95 0L4.45 0 4.45-35.5 19.45-35.5Q21.75-35.5 23.65-34.55 25.55-33.6 26.98-31.98 28.4-30.35 29.18-28.38 29.95-26.4 29.95-24.35L29.95-24.35Q29.95-21.8 28.98-19.55 28-17.3 26.23-15.75 24.45-14.2 22.05-13.7L22.05-13.7 30.75 0 26.8 0 18.45-13.1 7.95-13.1 7.95 0ZM7.95-32.4L7.95-16.2 19.55-16.2Q21.65-16.2 23.2-17.35 24.75-18.5 25.6-20.38 26.45-22.25 26.45-24.35L26.45-24.35Q26.45-26.5 25.48-28.33 24.5-30.15 22.88-31.28 21.25-32.4 19.25-32.4L19.25-32.4 7.95-32.4ZM33.9-7.5L33.9-7.5Q33.9-9.95 35.3-11.73 36.7-13.5 39.17-14.48 41.65-15.45 44.9-15.45L44.9-15.45Q46.8-15.45 48.85-15.15 50.9-14.85 52.5-14.25L52.5-14.25 52.5-16.45Q52.5-19.75 50.55-21.7 48.6-23.65 45.15-23.65L45.15-23.65Q43.05-23.65 41.02-22.88 39-22.1 36.8-20.6L36.8-20.6 35.5-23Q38.05-24.75 40.5-25.63 42.95-26.5 45.5-26.5L45.5-26.5Q50.3-26.5 53.1-23.75 55.9-21 55.9-16.15L55.9-16.15 55.9-4.1Q55.9-3.4 56.2-3.08 56.5-2.75 57.15-2.7L57.15-2.7 57.15 0Q56.6 0.05 56.2 0.1 55.8 0.15 55.6 0.1L55.6 0.1Q54.35 0.05 53.7-0.7 53.05-1.45 53-2.3L53-2.3 52.95-4.2Q51.2-1.95 48.4-0.73 45.6 0.5 42.7 0.5L42.7 0.5Q40.2 0.5 38.17-0.58 36.15-1.65 35.02-3.48 33.9-5.3 33.9-7.5ZM51.35-5.5L51.35-5.5Q51.9-6.2 52.2-6.85 52.5-7.5 52.5-8L52.5-8 52.5-11.8Q50.8-12.45 48.97-12.8 47.15-13.15 45.3-13.15L45.3-13.15Q41.65-13.15 39.4-11.7 37.15-10.25 37.15-7.75L37.15-7.75Q37.15-6.3 37.9-5.03 38.65-3.75 40.1-2.93 41.55-2.1 43.5-2.1L43.5-2.1Q45.95-2.1 48.07-3.05 50.2-4 51.35-5.5ZM61.05 0L61.05-2.3 78.5-23.5 61.45-23.5 61.45-26.05 82.34-26.05 82.34-23.75 65-2.55 82.3-2.55 82.3 0 61.05 0ZM127.99-9.15L127.99-9.15Q127.99-6.5 126.64-4.42 125.29-2.35 123.02-1.18 120.74 0 118.04 0L118.04 0 101.29 0 101.29-35.5 118.39-35.5Q120.89-35.5 122.72-34.18 124.54-32.85 125.52-30.78 126.49-28.7 126.49-26.45L126.49-26.45Q126.49-23.8 125.14-21.55 123.79-19.3 121.39-18.2L121.39-18.2Q124.44-17.3 126.22-14.85 127.99-12.4 127.99-9.15ZM124.49-9.75L124.49-9.75Q124.49-11.55 123.69-13.08 122.89-14.6 121.52-15.55 120.14-16.5 118.39-16.5L118.39-16.5 104.79-16.5 104.79-3.05 118.04-3.05Q119.84-3.05 121.29-4 122.74-4.95 123.62-6.48 124.49-8 124.49-9.75ZM117.29-32.45L104.79-32.45 104.79-19.35 116.99-19.35Q118.74-19.35 120.09-20.28 121.44-21.2 122.24-22.7 123.04-24.2 123.04-25.9L123.04-25.9Q123.04-27.7 122.29-29.18 121.54-30.65 120.24-31.55 118.94-32.45 117.29-32.45L117.29-32.45ZM131.79-7.5L131.79-7.5Q131.79-9.95 133.19-11.73 134.59-13.5 137.06-14.48 139.54-15.45 142.79-15.45L142.79-15.45Q144.69-15.45 146.74-15.15 148.79-14.85 150.39-14.25L150.39-14.25 150.39-16.45Q150.39-19.75 148.44-21.7 146.49-23.65 143.04-23.65L143.04-23.65Q140.94-23.65 138.91-22.88 136.89-22.1 134.69-20.6L134.69-20.6 133.39-23Q135.94-24.75 138.39-25.63 140.84-26.5 143.39-26.5L143.39-26.5Q148.19-26.5 150.99-23.75 153.79-21 153.79-16.15L153.79-16.15 153.79-4.1Q153.79-3.4 154.09-3.08 154.39-2.75 155.04-2.7L155.04-2.7 155.04 0Q154.49 0.05 154.09 0.1 153.69 0.15 153.49 0.1L153.49 0.1Q152.24 0.05 151.59-0.7 150.94-1.45 150.89-2.3L150.89-2.3 150.84-4.2Q149.09-1.95 146.29-0.73 143.49 0.5 140.59 0.5L140.59 0.5Q138.09 0.5 136.06-0.58 134.04-1.65 132.91-3.48 131.79-5.3 131.79-7.5ZM149.24-5.5L149.24-5.5Q149.79-6.2 150.09-6.85 150.39-7.5 150.39-8L150.39-8 150.39-11.8Q148.69-12.45 146.86-12.8 145.04-13.15 143.19-13.15L143.19-13.15Q139.54-13.15 137.29-11.7 135.04-10.25 135.04-7.75L135.04-7.75Q135.04-6.3 135.79-5.03 136.54-3.75 137.99-2.93 139.44-2.1 141.39-2.1L141.39-2.1Q143.84-2.1 145.96-3.05 148.09-4 149.24-5.5ZM161.29-4.75L161.29-36.5 164.69-36.5 164.69-5.9Q164.69-3.95 165.39-3.35 166.09-2.75 167.09-2.75L167.09-2.75Q167.99-2.75 168.89-2.95 169.79-3.15 170.44-3.35L170.44-3.35 171.04-0.6Q170.09-0.2 168.71 0.05 167.34 0.3 166.34 0.3L166.34 0.3Q164.04 0.3 162.66-1.05 161.29-2.4 161.29-4.75L161.29-4.75ZM213.48-15.25L213.48 0 210.08 0 210.08-14.55Q210.08-19.1 208.63-21.25 207.18-23.4 204.33-23.4L204.33-23.4Q201.38-23.4 199.06-21.3 196.73-19.2 195.78-15.9L195.78-15.9 195.78 0 192.38 0 192.38-14.55Q192.38-19.15 190.98-21.28 189.58-23.4 186.68-23.4L186.68-23.4Q183.78-23.4 181.43-21.35 179.08-19.3 178.13-15.95L178.13-15.95 178.13 0 174.73 0 174.73-26.05 177.83-26.05 177.83-20.15Q179.48-23.2 182.06-24.85 184.63-26.5 187.78-26.5L187.78-26.5Q191.03-26.5 193.03-24.65 195.03-22.8 195.48-19.8L195.48-19.8Q197.28-23.1 199.81-24.8 202.33-26.5 205.53-26.5L205.53-26.5Q207.73-26.5 209.26-25.7 210.78-24.9 211.71-23.43 212.63-21.95 213.06-19.88 213.48-17.8 213.48-15.25L213.48-15.25ZM218.58-7.5L218.58-7.5Q218.58-9.95 219.98-11.73 221.38-13.5 223.86-14.48 226.33-15.45 229.58-15.45L229.58-15.45Q231.48-15.45 233.53-15.15 235.58-14.85 237.18-14.25L237.18-14.25 237.18-16.45Q237.18-19.75 235.23-21.7 233.28-23.65 229.83-23.65L229.83-23.65Q227.73-23.65 225.71-22.88 223.68-22.1 221.48-20.6L221.48-20.6 220.18-23Q222.73-24.75 225.18-25.63 227.63-26.5 230.18-26.5L230.18-26.5Q234.98-26.5 237.78-23.75 240.58-21 240.58-16.15L240.58-16.15 240.58-4.1Q240.58-3.4 240.88-3.08 241.18-2.75 241.83-2.7L241.83-2.7 241.83 0Q241.28 0.05 240.88 0.1 240.48 0.15 240.28 0.1L240.28 0.1Q239.03 0.05 238.38-0.7 237.73-1.45 237.68-2.3L237.68-2.3 237.63-4.2Q235.88-1.95 233.08-0.73 230.28 0.5 227.38 0.5L227.38 0.5Q224.88 0.5 222.86-0.58 220.83-1.65 219.71-3.48 218.58-5.3 218.58-7.5ZM236.03-5.5L236.03-5.5Q236.58-6.2 236.88-6.85 237.18-7.5 237.18-8L237.18-8 237.18-11.8Q235.48-12.45 233.66-12.8 231.83-13.15 229.98-13.15L229.98-13.15Q226.33-13.15 224.08-11.7 221.83-10.25 221.83-7.75L221.83-7.75Q221.83-6.3 222.58-5.03 223.33-3.75 224.78-2.93 226.23-2.1 228.18-2.1L228.18-2.1Q230.63-2.1 232.75-3.05 234.88-4 236.03-5.5ZM256.48 0.5L256.48 0.5Q253.28 0.5 250.53-0.55 247.78-1.6 245.78-3.75L245.78-3.75 247.18-6.15Q249.38-4.1 251.6-3.18 253.83-2.25 256.33-2.25L256.33-2.25Q259.38-2.25 261.28-3.48 263.18-4.7 263.18-7L263.18-7Q263.18-8.55 262.25-9.38 261.33-10.2 259.6-10.73 257.88-11.25 255.48-11.85L255.48-11.85Q252.78-12.6 250.95-13.43 249.13-14.25 248.2-15.53 247.28-16.8 247.28-18.85L247.28-18.85Q247.28-21.4 248.55-23.08 249.83-24.75 252.05-25.63 254.28-26.5 257.03-26.5L257.03-26.5Q260.03-26.5 262.33-25.55 264.63-24.6 266.08-22.9L266.08-22.9 264.43-20.6Q263.03-22.2 261.1-22.98 259.18-23.75 256.83-23.75L256.83-23.75Q255.23-23.75 253.78-23.33 252.33-22.9 251.4-21.93 250.48-20.95 250.48-19.25L250.48-19.25Q250.48-17.85 251.18-17.07 251.88-16.3 253.28-15.78 254.68-15.25 256.73-14.65L256.73-14.65Q259.68-13.85 261.88-13.03 264.08-12.2 265.28-10.9 266.48-9.6 266.48-7.25L266.48-7.25Q266.48-3.6 263.73-1.55 260.98 0.5 256.48 0.5ZM283.17-18L283.17-18Q283.17-21.25 284.3-24.38 285.42-27.5 287.57-30.08 289.72-32.65 292.87-34.18 296.02-35.7 300.02-35.7L300.02-35.7Q304.77-35.7 308.15-33.52 311.52-31.35 313.12-27.95L313.12-27.95 310.37-26.25Q309.22-28.6 307.47-29.98 305.72-31.35 303.75-31.95 301.77-32.55 299.82-32.55L299.82-32.55Q296.62-32.55 294.17-31.28 291.72-30 290.05-27.88 288.37-25.75 287.52-23.13 286.67-20.5 286.67-17.8L286.67-17.8Q286.67-14.85 287.67-12.15 288.67-9.45 290.47-7.38 292.27-5.3 294.7-4.08 297.12-2.85 299.97-2.85L299.97-2.85Q301.97-2.85 304.07-3.55 306.17-4.25 308-5.7 309.82-7.15 310.92-9.45L310.92-9.45 313.82-7.95Q312.72-5.3 310.42-3.45 308.12-1.6 305.3-0.65 302.47 0.3 299.77 0.3L299.77 0.3Q296.12 0.3 293.07-1.28 290.02-2.85 287.8-5.48 285.57-8.1 284.37-11.38 283.17-14.65 283.17-18ZM330.22 0.5L330.22 0.5Q327.42 0.5 325.05-0.58 322.67-1.65 320.94-3.53 319.22-5.4 318.27-7.83 317.32-10.25 317.32-12.95L317.32-12.95Q317.32-15.75 318.27-18.18 319.22-20.6 320.97-22.48 322.72-24.35 325.1-25.43 327.47-26.5 330.27-26.5L330.27-26.5Q333.07-26.5 335.42-25.43 337.77-24.35 339.52-22.48 341.27-20.6 342.22-18.18 343.17-15.75 343.17-12.95L343.17-12.95Q343.17-10.25 342.22-7.83 341.27-5.4 339.55-3.53 337.82-1.65 335.44-0.58 333.07 0.5 330.22 0.5ZM320.77-12.9L320.77-12.9Q320.77-10 322.05-7.63 323.32-5.25 325.47-3.88 327.62-2.5 330.22-2.5L330.22-2.5Q332.82-2.5 334.97-3.9 337.12-5.3 338.42-7.73 339.72-10.15 339.72-13L339.72-13Q339.72-15.9 338.42-18.3 337.12-20.7 334.97-22.1 332.82-23.5 330.22-23.5L330.22-23.5Q327.62-23.5 325.5-22.05 323.37-20.6 322.07-18.23 320.77-15.85 320.77-12.9ZM348.62-10.75L348.62-10.75 348.62-26.05 352.02-26.05 352.02-11.35Q352.02-6.9 353.54-4.7 355.07-2.5 358.07-2.5L358.07-2.5Q360.07-2.5 361.94-3.38 363.82-4.25 365.27-5.88 366.72-7.5 367.47-9.65L367.47-9.65 367.47-26.05 370.87-26.05 370.87-4.1Q370.87-3.4 371.17-3.08 371.47-2.75 372.07-2.7L372.07-2.7 372.07 0Q371.47 0.05 371.12 0.08 370.77 0.1 370.47 0.1L370.47 0.1Q369.47 0 368.74-0.7 368.02-1.4 367.97-2.4L367.97-2.4 367.87-5.9Q366.17-2.9 363.24-1.2 360.32 0.5 356.92 0.5L356.92 0.5Q352.82 0.5 350.72-2.35 348.62-5.2 348.62-10.75ZM391.87 0.5L391.87 0.5Q388.62 0.5 386.04-1.2 383.46-2.9 381.96-5.4L381.96-5.4 381.96 10.65 378.56 10.65 378.56-26.05 381.62-26.05 381.62-21Q383.17-23.45 385.76-24.98 388.37-26.5 391.31-26.5L391.31-26.5Q394.01-26.5 396.26-25.38 398.51-24.25 400.17-22.35 401.81-20.45 402.74-18.03 403.67-15.6 403.67-13L403.67-13Q403.67-9.35 402.19-6.28 400.71-3.2 398.06-1.35 395.42 0.5 391.87 0.5ZM390.92-2.5L390.92-2.5Q393.06-2.5 394.76-3.38 396.46-4.25 397.69-5.75 398.92-7.25 399.56-9.13 400.21-11 400.21-13L400.21-13Q400.21-15.1 399.49-17 398.76-18.9 397.42-20.35 396.06-21.8 394.31-22.65 392.56-23.5 390.51-23.5L390.51-23.5Q389.21-23.5 387.81-23 386.42-22.5 385.14-21.58 383.87-20.65 383.01-19.5 382.17-18.35 381.96-17.05L381.96-17.05 381.96-9.05Q382.76-7.2 384.12-5.73 385.46-4.25 387.24-3.38 389.01-2.5 390.92-2.5ZM420.51 0.5L420.51 0.5Q417.71 0.5 415.34-0.58 412.96-1.65 411.24-3.53 409.51-5.4 408.56-7.83 407.61-10.25 407.61-12.95L407.61-12.95Q407.61-15.75 408.56-18.18 409.51-20.6 411.26-22.48 413.01-24.35 415.39-25.43 417.76-26.5 420.56-26.5L420.56-26.5Q423.36-26.5 425.71-25.43 428.06-24.35 429.81-22.48 431.56-20.6 432.51-18.18 433.46-15.75 433.46-12.95L433.46-12.95Q433.46-10.25 432.51-7.83 431.56-5.4 429.84-3.53 428.11-1.65 425.74-0.58 423.36 0.5 420.51 0.5ZM411.06-12.9L411.06-12.9Q411.06-10 412.34-7.63 413.61-5.25 415.76-3.88 417.91-2.5 420.51-2.5L420.51-2.5Q423.11-2.5 425.26-3.9 427.41-5.3 428.71-7.73 430.01-10.15 430.01-13L430.01-13Q430.01-15.9 428.71-18.3 427.41-20.7 425.26-22.1 423.11-23.5 420.51-23.5L420.51-23.5Q417.91-23.5 415.79-22.05 413.66-20.6 412.36-18.23 411.06-15.85 411.06-12.9ZM461.06-15.25L461.06 0 457.66 0 457.66-14.55Q457.66-19.15 456.31-21.28 454.96-23.4 452.06-23.4L452.06-23.4Q450.06-23.4 448.11-22.43 446.16-21.45 444.69-19.78 443.21-18.1 442.56-15.95L442.56-15.95 442.56 0 439.16 0 439.16-26.05 442.26-26.05 442.26-20.15Q443.31-22.05 445.01-23.48 446.71-24.9 448.86-25.7 451.01-26.5 453.31-26.5L453.31-26.5Q455.46-26.5 456.96-25.7 458.46-24.9 459.36-23.43 460.26-21.95 460.66-19.88 461.06-17.8 461.06-15.25L461.06-15.25ZM485.25 0L481.75 0 481.75-35.5 496.45-35.5Q498.75-35.5 500.68-34.55 502.61-33.6 504-31.98 505.41-30.35 506.2-28.38 507-26.4 507-24.35L507-24.35Q507-21.45 505.73-18.88 504.45-16.3 502.16-14.7 499.86-13.1 496.75-13.1L496.75-13.1 485.25-13.1 485.25 0ZM485.25-32.4L485.25-16.2 496.61-16.2Q498.7-16.2 500.25-17.35 501.81-18.5 502.66-20.35 503.5-22.2 503.5-24.35L503.5-24.35Q503.5-26.55 502.5-28.4 501.5-30.25 499.88-31.33 498.25-32.4 496.31-32.4L496.31-32.4 485.25-32.4ZM525.15-26.15L525.15-23.05Q521.75-22.95 519.18-21.15 516.6-19.35 515.55-16.2L515.55-16.2 515.55 0 512.15 0 512.15-26.05 515.35-26.05 515.35-19.8Q516.7-22.55 518.93-24.25 521.15-25.95 523.65-26.15L523.65-26.15Q524.15-26.2 524.53-26.2 524.9-26.2 525.15-26.15L525.15-26.15ZM540 0.5L540 0.5Q537.2 0.5 534.82-0.58 532.45-1.65 530.73-3.53 529-5.4 528.05-7.83 527.1-10.25 527.1-12.95L527.1-12.95Q527.1-15.75 528.05-18.18 529-20.6 530.75-22.48 532.5-24.35 534.88-25.43 537.25-26.5 540.05-26.5L540.05-26.5Q542.85-26.5 545.2-25.43 547.55-24.35 549.3-22.48 551.05-20.6 552-18.18 552.95-15.75 552.95-12.95L552.95-12.95Q552.95-10.25 552-7.83 551.05-5.4 549.32-3.53 547.6-1.65 545.23-0.58 542.85 0.5 540 0.5ZM530.55-12.9L530.55-12.9Q530.55-10 531.82-7.63 533.1-5.25 535.25-3.88 537.4-2.5 540-2.5L540-2.5Q542.6-2.5 544.75-3.9 546.9-5.3 548.2-7.73 549.5-10.15 549.5-13L549.5-13Q549.5-15.9 548.2-18.3 546.9-20.7 544.75-22.1 542.6-23.5 540-23.5L540-23.5Q537.4-23.5 535.27-22.05 533.15-20.6 531.85-18.23 530.55-15.85 530.55-12.9ZM554.75 9.05L554.75 9.05Q553.1 9.05 551.62 8.6 550.15 8.15 549.05 7.1L549.05 7.1 550.7 4.8Q551.45 5.5 552.42 5.75 553.4 6 554.35 6L554.35 6Q555.55 6 556.6 5.4 557.65 4.8 558.32 3.73 559 2.65 559 1.35L559 1.35 559-26.05 562.4-26.05 562.4 1.15Q562.4 3.45 561.3 5.25 560.2 7.05 558.45 8.05 556.7 9.05 554.75 9.05ZM562.4-31.5L559-31.5 559-36.5 562.4-36.5 562.4-31.5ZM581.14 0.5L581.14 0.5Q578.34 0.5 575.94-0.58 573.54-1.65 571.79-3.53 570.04-5.4 569.07-7.85 568.09-10.3 568.09-13.1L568.09-13.1Q568.09-16.75 569.77-19.8 571.44-22.85 574.39-24.68 577.34-26.5 581.09-26.5L581.09-26.5Q584.94-26.5 587.82-24.65 590.69-22.8 592.34-19.78 593.99-16.75 593.99-13.15L593.99-13.15Q593.99-12.75 593.99-12.38 593.99-12 593.94-11.8L593.94-11.8 571.64-11.8Q571.89-9 573.22-6.83 574.54-4.65 576.67-3.38 578.79-2.1 581.29-2.1L581.29-2.1Q583.84-2.1 586.12-3.4 588.39-4.7 589.29-6.8L589.29-6.8 592.24-6Q591.44-4.15 589.79-2.65 588.14-1.15 585.92-0.33 583.69 0.5 581.14 0.5ZM571.54-14.25L571.54-14.25 590.79-14.25Q590.59-17.1 589.27-19.25 587.94-21.4 585.82-22.63 583.69-23.85 581.14-23.85L581.14-23.85Q578.59-23.85 576.49-22.63 574.39-21.4 573.07-19.23 571.74-17.05 571.54-14.25ZM610.54 0.5L610.54 0.5Q607.69 0.5 605.32-0.58 602.94-1.65 601.17-3.55 599.39-5.45 598.42-7.9 597.44-10.35 597.44-13.1L597.44-13.1Q597.44-16.8 599.09-19.85 600.74-22.9 603.69-24.7 606.64-26.5 610.49-26.5L610.49-26.5Q614.14-26.5 616.94-24.83 619.74-23.15 621.09-20.3L621.09-20.3 617.79-19.25Q616.69-21.25 614.72-22.38 612.74-23.5 610.34-23.5L610.34-23.5Q607.74-23.5 605.59-22.15 603.44-20.8 602.17-18.45 600.89-16.1 600.89-13.1L600.89-13.1Q600.89-10.15 602.19-7.75 603.49-5.35 605.64-3.93 607.79-2.5 610.39-2.5L610.39-2.5Q612.09-2.5 613.67-3.1 615.24-3.7 616.42-4.73 617.59-5.75 617.99-6.95L617.99-6.95 621.34-5.95Q620.64-4.1 619.02-2.63 617.39-1.15 615.22-0.33 613.04 0.5 610.54 0.5ZM638.29-4L639.19-1.25Q638.79-1.1 637.94-0.7 637.09-0.3 635.89 0 634.69 0.3 633.29 0.3L633.29 0.3Q631.84 0.3 630.56-0.25 629.29-0.8 628.54-1.93 627.79-3.05 627.79-4.7L627.79-4.7 627.79-23.35 624.19-23.35 624.19-26.05 627.79-26.05 627.79-34.85 631.19-34.85 631.19-26.05 637.19-26.05 637.19-23.35 631.19-23.35 631.19-5.65Q631.29-4.25 632.21-3.55 633.14-2.85 634.34-2.85L634.34-2.85Q635.74-2.85 636.89-3.33 638.04-3.8 638.29-4L638.29-4Z" opacity="1" transform="matrix(1,0,0,1,0,0)" fill="#454545" class="undefined-text-1" data-fill-palette-color="secondary" id="text-1"></path></svg></g></svg></g></svg></g></svg></g><g><svg viewBox="0 0 235.2568218616874 123.35299997789448" height="123.35299997789448" width="235.2568218616874"><g><svg xmlns="http://www.w3.org/2000/svg" xmlns:xlink="http://www.w3.org/1999/xlink" version="1.1" x="0" y="0" viewBox="5 2.621000289916992 90 47.19000244140625" enable-background="new 0 0 100 52.432" xml:space="preserve" height="123.35299997789448" width="235.2568218616874" class="icon-icon-0" data-fill-palette-color="accent" id="icon-0"><path d="M86.243 49.811H13.757C6.801 49.811 5 48.01 5 41.054V11.378c0-6.956 1.801-8.757 8.757-8.757h72.486c6.956 0 8.757 1.801 8.757 8.757v29.676C95 48.01 93.199 49.811 86.243 49.811zM13.757 4.568c-5.92 0-6.811 0.891-6.811 6.811v29.676c0 5.92 0.891 6.811 6.811 6.811h72.486c5.92 0 6.811-0.891 6.811-6.811V11.378c0-5.92-0.891-6.811-6.811-6.811L13.757 4.568 13.757 4.568z" fill="#454545" data-fill-palette-color="accent"></path><path d="M77.179 46.162h-8.8v-1.946h8.8V46.162zM59.58 46.162h-8.8v-1.946h8.8V46.162zM41.981 46.162h-8.8v-1.946h8.8V46.162zM24.382 46.162h-7.507c-0.471 0-0.913-0.007-1.329-0.023l0.074-1.944c0.391 0.014 0.81 0.021 1.255 0.021h7.507V46.162zM86.092 46.015l-0.241-1.931c2.646-0.33 3.416-1.081 3.416-5.424v-0.099h1.946v0.099C91.213 43.115 90.42 45.476 86.092 46.015zM8.833 40.281c-0.031-0.494-0.046-1.032-0.046-1.62v-7.24h1.946v7.24c0 0.543 0.012 1.04 0.042 1.497L8.833 40.281zM91.213 29.762h-1.946v-8.8h1.946V29.762zM10.733 22.621H8.787v-8.8h1.946V22.621zM89.223 12.23c-0.2-2.967-0.866-3.852-4.889-3.994l0.068-1.945c4.775 0.169 6.481 1.635 6.762 5.808L89.223 12.23zM14.104 8.354l-0.249-1.93c0.809-0.105 1.768-0.153 3.02-0.154h5.897v1.946h-5.897C15.708 8.217 14.829 8.26 14.104 8.354zM75.569 8.216h-8.8V6.27h8.8V8.216zM57.97 8.216h-8.8V6.27h8.8V8.216zM40.371 8.216h-8.8V6.27h8.8V8.216z" fill="#454545" data-fill-palette-color="accent"></path><rect x="15.459" y="12.472" width="22.622" height="27.489" fill="#454545" data-fill-palette-color="accent"></rect><path d="M73.351 19.405h-24.81c-1.075 0-1.946-0.871-1.946-1.946s0.871-1.946 1.946-1.946h24.811c1.075 0 1.946 0.871 1.946 1.946S74.426 19.405 73.351 19.405z" fill="#454545" data-fill-palette-color="accent"></path><path d="M85.757 38.378H41.973c-0.269 0-0.486-0.218-0.486-0.486s0.218-0.486 0.486-0.486h43.784c0.269 0 0.486 0.218 0.486 0.486S86.026 38.378 85.757 38.378z" fill="#454545" data-fill-palette-color="accent"></path><path d="M85.757 35.459H41.973c-0.269 0-0.486-0.218-0.486-0.486s0.218-0.486 0.486-0.486h43.784c0.269 0 0.486 0.218 0.486 0.486S86.026 35.459 85.757 35.459z" fill="#454545" data-fill-palette-color="accent"></path><path d="M85.757 32.541H41.973c-0.269 0-0.486-0.218-0.486-0.486s0.218-0.486 0.486-0.486h43.784c0.269 0 0.486 0.218 0.486 0.486C86.243 32.323 86.026 32.541 85.757 32.541z" fill="#454545" data-fill-palette-color="accent"></path><path d="M73.351 26.216h-24.81c-1.075 0-1.946-0.871-1.946-1.946 0-1.075 0.871-1.946 1.946-1.946h24.811c1.075 0 1.946 0.871 1.946 1.946C75.297 25.345 74.426 26.216 73.351 26.216z" fill="#454545" data-fill-palette-color="accent"></path></svg></g></svg></g></svg></g><defs></defs></svg><rect width="395.52" height="75.81049639765241" fill="none" stroke="none" visibility="hidden"></rect></g></svg></g></svg>